<svg width="325" height="80" viewBox="0 0 325 80" fill="none" xmlns="http://www.w3.org/2000/svg">
<path d="M84.6364 62V15.4545H100.909C104.152 15.4545 106.826 16.0152 108.932 17.1364C111.038 18.2424 112.606 19.7348 113.636 21.6136C114.667 23.4773 115.182 25.5455 115.182 27.8182C115.182 29.8182 114.826 31.4697 114.114 32.7727C113.417 34.0758 112.492 35.1061 111.341 35.8636C110.205 36.6212 108.97 37.1818 107.636 37.5455V38C109.061 38.0909 110.492 38.5909 111.932 39.5C113.371 40.4091 114.576 41.7121 115.545 43.4091C116.515 45.1061 117 47.1818 117 49.6364C117 51.9697 116.47 54.0682 115.409 55.9318C114.348 57.7955 112.674 59.2727 110.386 60.3636C108.098 61.4545 105.121 62 101.455 62H84.6364ZM90.2727 57H101.455C105.136 57 107.75 56.2879 109.295 54.8636C110.856 53.4242 111.636 51.6818 111.636 49.6364C111.636 48.0606 111.235 46.6061 110.432 45.2727C109.629 43.9242 108.485 42.8485 107 42.0455C105.515 41.2273 103.758 40.8182 101.727 40.8182H90.2727V57ZM90.2727 35.9091H100.727C102.424 35.9091 103.955 35.5758 105.318 34.9091C106.697 34.2424 107.788 33.303 108.591 32.0909C109.409 30.8788 109.818 29.4545 109.818 27.8182C109.818 25.7727 109.106 24.0379 107.682 22.6136C106.258 21.1742 104 20.4545 100.909 20.4545H90.2727V35.9091ZM135.807 62.8182C133.595 62.8182 131.587 62.4015 129.784 61.5682C127.981 60.7197 126.549 59.5 125.489 57.9091C124.428 56.303 123.898 54.3636 123.898 52.0909C123.898 50.0909 124.292 48.4697 125.08 47.2273C125.867 45.9697 126.92 44.9848 128.239 44.2727C129.557 43.5606 131.011 43.0303 132.602 42.6818C134.208 42.3182 135.822 42.0303 137.443 41.8182C139.564 41.5455 141.284 41.3409 142.602 41.2045C143.936 41.053 144.905 40.803 145.511 40.4545C146.133 40.1061 146.443 39.5 146.443 38.6364V38.4545C146.443 36.2121 145.83 34.4697 144.602 33.2273C143.39 31.9848 141.549 31.3636 139.08 31.3636C136.519 31.3636 134.511 31.9242 133.057 33.0455C131.602 34.1667 130.58 35.3636 129.989 36.6364L124.898 34.8182C125.807 32.697 127.019 31.0455 128.534 29.8636C130.064 28.6667 131.731 27.8333 133.534 27.3636C135.352 26.8788 137.14 26.6364 138.898 26.6364C140.019 26.6364 141.307 26.7727 142.761 27.0455C144.231 27.303 145.648 27.8409 147.011 28.6591C148.39 29.4773 149.534 30.7121 150.443 32.3636C151.352 34.0152 151.807 36.2273 151.807 39V62H146.443V57.2727H146.17C145.807 58.0303 145.201 58.8409 144.352 59.7045C143.504 60.5682 142.375 61.303 140.966 61.9091C139.557 62.5152 137.837 62.8182 135.807 62.8182ZM136.625 58C138.746 58 140.534 57.5833 141.989 56.75C143.458 55.9167 144.564 54.8409 145.307 53.5227C146.064 52.2045 146.443 50.8182 146.443 49.3636V44.4545C146.216 44.7273 145.716 44.9773 144.943 45.2045C144.186 45.4167 143.307 45.6061 142.307 45.7727C141.322 45.9242 140.36 46.0606 139.42 46.1818C138.496 46.2879 137.746 46.3788 137.17 46.4545C135.777 46.6364 134.473 46.9318 133.261 47.3409C132.064 47.7348 131.095 48.3333 130.352 49.1364C129.625 49.9242 129.261 51 129.261 52.3636C129.261 54.2273 129.951 55.6364 131.33 56.5909C132.723 57.5303 134.489 58 136.625 58ZM186.324 34.9091L181.506 36.2727C181.203 35.4697 180.756 34.6894 180.165 33.9318C179.589 33.1591 178.801 32.5227 177.801 32.0227C176.801 31.5227 175.521 31.2727 173.96 31.2727C171.824 31.2727 170.044 31.7652 168.619 32.75C167.21 33.7197 166.506 34.9545 166.506 36.4545C166.506 37.7879 166.991 38.8409 167.96 39.6136C168.93 40.3864 170.445 41.0303 172.506 41.5455L177.688 42.8182C180.809 43.5758 183.134 44.7348 184.665 46.2955C186.195 47.8409 186.96 49.8333 186.96 52.2727C186.96 54.2727 186.384 56.0606 185.233 57.6364C184.097 59.2121 182.506 60.4545 180.46 61.3636C178.415 62.2727 176.036 62.7273 173.324 62.7273C169.763 62.7273 166.816 61.9545 164.483 60.4091C162.15 58.8636 160.672 56.6061 160.051 53.6364L165.142 52.3636C165.627 54.2424 166.544 55.6515 167.892 56.5909C169.256 57.5303 171.036 58 173.233 58C175.733 58 177.718 57.4697 179.188 56.4091C180.672 55.3333 181.415 54.0455 181.415 52.5455C181.415 51.3333 180.991 50.3182 180.142 49.5C179.294 48.6667 177.991 48.0455 176.233 47.6364L170.415 46.2727C167.218 45.5152 164.869 44.3409 163.369 42.75C161.884 41.1439 161.142 39.1364 161.142 36.7273C161.142 34.7576 161.695 33.0152 162.801 31.5C163.922 29.9848 165.445 28.7955 167.369 27.9318C169.309 27.0682 171.506 26.6364 173.96 26.6364C177.415 26.6364 180.127 27.3939 182.097 28.9091C184.081 30.4242 185.491 32.4242 186.324 34.9091ZM210.216 27.0909V31.6364H192.125V27.0909H210.216ZM197.398 18.7273H202.761V52C202.761 53.5152 202.981 54.6515 203.42 55.4091C203.875 56.1515 204.451 56.6515 205.148 56.9091C205.86 57.1515 206.61 57.2727 207.398 57.2727C207.989 57.2727 208.473 57.2424 208.852 57.1818C209.231 57.1061 209.534 57.0455 209.761 57L210.852 61.8182C210.489 61.9545 209.981 62.0909 209.33 62.2273C208.678 62.3788 207.852 62.4545 206.852 62.4545C205.337 62.4545 203.852 62.1288 202.398 61.4773C200.958 60.8258 199.761 59.8333 198.807 58.5C197.867 57.1667 197.398 55.4848 197.398 53.4545V18.7273ZM228.557 62.8182C226.345 62.8182 224.337 62.4015 222.534 61.5682C220.731 60.7197 219.299 59.5 218.239 57.9091C217.178 56.303 216.648 54.3636 216.648 52.0909C216.648 50.0909 217.042 48.4697 217.83 47.2273C218.617 45.9697 219.67 44.9848 220.989 44.2727C222.307 43.5606 223.761 43.0303 225.352 42.6818C226.958 42.3182 228.572 42.0303 230.193 41.8182C232.314 41.5455 234.034 41.3409 235.352 41.2045C236.686 41.053 237.655 40.803 238.261 40.4545C238.883 40.1061 239.193 39.5 239.193 38.6364V38.4545C239.193 36.2121 238.58 34.4697 237.352 33.2273C236.14 31.9848 234.299 31.3636 231.83 31.3636C229.269 31.3636 227.261 31.9242 225.807 33.0455C224.352 34.1667 223.33 35.3636 222.739 36.6364L217.648 34.8182C218.557 32.697 219.769 31.0455 221.284 29.8636C222.814 28.6667 224.481 27.8333 226.284 27.3636C228.102 26.8788 229.89 26.6364 231.648 26.6364C232.769 26.6364 234.057 26.7727 235.511 27.0455C236.981 27.303 238.398 27.8409 239.761 28.6591C241.14 29.4773 242.284 30.7121 243.193 32.3636C244.102 34.0152 244.557 36.2273 244.557 39V62H239.193V57.2727H238.92C238.557 58.0303 237.951 58.8409 237.102 59.7045C236.254 60.5682 235.125 61.303 233.716 61.9091C232.307 62.5152 230.587 62.8182 228.557 62.8182ZM229.375 58C231.496 58 233.284 57.5833 234.739 56.75C236.208 55.9167 237.314 54.8409 238.057 53.5227C238.814 52.2045 239.193 50.8182 239.193 49.3636V44.4545C238.966 44.7273 238.466 44.9773 237.693 45.2045C236.936 45.4167 236.057 45.6061 235.057 45.7727C234.072 45.9242 233.11 46.0606 232.17 46.1818C231.246 46.2879 230.496 46.3788 229.92 46.4545C228.527 46.6364 227.223 46.9318 226.011 47.3409C224.814 47.7348 223.845 48.3333 223.102 49.1364C222.375 49.9242 222.011 51 222.011 52.3636C222.011 54.2273 222.701 55.6364 224.08 56.5909C225.473 57.5303 227.239 58 229.375 58ZM254.347 62V27.0909H259.528V32.3636H259.892C260.528 30.6364 261.68 29.2348 263.347 28.1591C265.013 27.0833 266.892 26.5455 268.983 26.5455C269.377 26.5455 269.869 26.553 270.46 26.5682C271.051 26.5833 271.498 26.6061 271.801 26.6364V32.0909C271.619 32.0455 271.203 31.9773 270.551 31.8864C269.915 31.7803 269.241 31.7273 268.528 31.7273C266.831 31.7273 265.316 32.0833 263.983 32.7955C262.665 33.4924 261.619 34.4621 260.847 35.7045C260.089 36.9318 259.71 38.3333 259.71 39.9091V62H254.347ZM290.278 62.7273C287.369 62.7273 284.801 61.9924 282.574 60.5227C280.347 59.0379 278.604 56.947 277.347 54.25C276.089 51.5379 275.46 48.3333 275.46 44.6364C275.46 40.9697 276.089 37.7879 277.347 35.0909C278.604 32.3939 280.354 30.3106 282.597 28.8409C284.839 27.3712 287.43 26.6364 290.369 26.6364C292.642 26.6364 294.438 27.0152 295.756 27.7727C297.089 28.5152 298.104 29.3636 298.801 30.3182C299.513 31.2576 300.066 32.0303 300.46 32.6364H300.915V15.4545H306.278V62H301.097V56.6364H300.46C300.066 57.2727 299.506 58.0758 298.778 59.0455C298.051 60 297.013 60.8561 295.665 61.6136C294.316 62.3561 292.521 62.7273 290.278 62.7273ZM291.006 57.9091C293.157 57.9091 294.975 57.3485 296.46 56.2273C297.945 55.0909 299.074 53.5227 299.847 51.5227C300.619 49.5076 301.006 47.1818 301.006 44.5455C301.006 41.9394 300.627 39.6591 299.869 37.7045C299.112 35.7348 297.991 34.2045 296.506 33.1136C295.021 32.0076 293.188 31.4545 291.006 31.4545C288.733 31.4545 286.839 32.0379 285.324 33.2045C283.824 34.3561 282.695 35.9242 281.938 37.9091C281.195 39.8788 280.824 42.0909 280.824 44.5455C280.824 47.0303 281.203 49.2879 281.96 51.3182C282.733 53.3333 283.869 54.9394 285.369 56.1364C286.884 57.3182 288.763 57.9091 291.006 57.9091Z" fill="#00D1FF"/>
<path fill-rule="evenodd" clip-rule="evenodd" d="M43.75 12.5833C46.9718 12.5833 49.5833 15.0831 49.5833 18.1667V51.6667C49.5833 54.7504 46.9718 57.25 43.75 57.25H14.5833C11.3617 57.25 8.75 54.7504 8.75 51.6667V18.1667C8.75 15.0831 11.3617 12.5833 14.5833 12.5833H43.75ZM14.5833 18.1667H43.75V51.6667H14.5833V18.1667Z" fill="#00D1FF"/>
<path d="M55.4167 57.25V26.5417C55.4167 24.9999 56.7225 23.75 58.3334 23.75C59.9442 23.75 61.25 24.9999 61.25 26.5417V57.25C61.25 63.4171 56.0266 68.4167 49.5834 68.4167H23.3334C21.7225 68.4167 20.4167 67.1668 20.4167 65.625C20.4167 64.0832 21.7225 62.8333 23.3334 62.8333H49.5834C52.8051 62.8333 55.4167 60.3337 55.4167 57.25Z" fill="#00D1FF"/>
</svg>
