<svg width="37" height="30" viewBox="0 0 37 30" fill="none" xmlns="http://www.w3.org/2000/svg">
<path fill-rule="evenodd" clip-rule="evenodd" d="M34.7215 28.2345C35.8664 27.4728 36.5285 26.3617 36.5354 25.1903V20.921C36.5354 19.678 35.4932 18.5802 33.9654 18.2138L27.6294 16.6938C26.4858 16.4195 25.242 16.599 24.3013 17.1741L21.7729 18.7199C20.1981 17.8624 18.6971 16.8869 17.2904 15.7935C15.8839 14.7 14.629 13.5332 13.5258 12.3091L15.5145 10.3436C16.2542 9.61237 16.4851 8.64544 16.1323 7.75653L14.177 2.83123C13.7055 1.64351 12.2933 0.833374 10.6943 0.833374H5.20228C3.69533 0.838772 2.26589 1.35343 1.28601 2.24341C0.476128 2.979 0.0177694 3.91741 0.0954229 4.88375C0.584908 10.9742 3.82274 16.9555 9.80917 21.6091C15.7957 26.2627 23.4901 28.7795 31.3249 29.1601C32.568 29.2204 33.7752 28.8641 34.7215 28.2345ZM10.6609 10.5574C9.6674 11.5394 9.61847 12.9113 10.5405 13.9346C11.7647 15.2931 13.156 16.5864 14.7131 17.797C16.2704 19.0074 17.9341 20.089 19.6818 21.0406C20.9981 21.7573 22.763 21.7193 24.0263 20.9469L26.5545 19.4012L32.8906 20.921V25.1819C32.8867 25.5283 32.6903 25.8567 32.3515 26.0821C32.0386 26.2902 31.7415 26.3415 31.5522 26.3322C24.5694 25.9931 17.7211 23.7525 12.3865 19.6056C7.05187 15.4588 4.16944 10.1352 3.73318 4.70708C3.72136 4.55989 3.78727 4.32903 4.05511 4.08576C4.34506 3.82241 4.76745 3.66963 5.21316 3.66671H10.6943L12.6495 8.59199L10.6609 10.5574Z" fill="black"/>
</svg>
