<svg width="70" height="67" viewBox="0 0 70 67" fill="none" xmlns="http://www.w3.org/2000/svg">
<path fill-rule="evenodd" clip-rule="evenodd" d="M43.75 5.58334C46.9718 5.58334 49.5833 8.08309 49.5833 11.1667V44.6667C49.5833 47.7504 46.9718 50.25 43.75 50.25H14.5833C11.3617 50.25 8.75 47.7504 8.75 44.6667V11.1667C8.75 8.08309 11.3617 5.58334 14.5833 5.58334H43.75ZM14.5833 11.1667H43.75V44.6667H14.5833V11.1667Z" fill="#00D1FF"/>
<path d="M55.4167 50.25V19.5417C55.4167 17.9999 56.7225 16.75 58.3334 16.75C59.9442 16.75 61.25 17.9999 61.25 19.5417V50.25C61.25 56.4171 56.0266 61.4167 49.5834 61.4167H23.3334C21.7225 61.4167 20.4167 60.1668 20.4167 58.625C20.4167 57.0832 21.7225 55.8333 23.3334 55.8333H49.5834C52.8051 55.8333 55.4167 53.3337 55.4167 50.25Z" fill="#00D1FF"/>
</svg>
