<svg width="48" height="61" viewBox="0 0 48 61" fill="none" xmlns="http://www.w3.org/2000/svg">
<g clip-path="url(#clip0_2_12)">
<mask id="mask0_2_12" style="mask-type:luminance" maskUnits="userSpaceOnUse" x="0" y="0" width="48" height="61">
<path d="M48 0H0V61H48V0Z" fill="white"/>
</mask>
<g mask="url(#mask0_2_12)">
<path d="M15 30.5C15 28.3945 13.6569 26.6875 12 26.6875C10.3431 26.6875 9 28.3945 9 30.5C9 32.6055 10.3431 34.3125 12 34.3125C13.6569 34.3125 15 32.6055 15 30.5Z" fill="#00D1FF"/>
<path fill-rule="evenodd" clip-rule="evenodd" d="M18 45.75C21.3138 45.75 24 42.3363 24 38.125H30V40.6667C30 43.4742 31.7908 45.75 34 45.75H38C40.2092 45.75 42 43.4742 42 40.6667V38.125H44C46.2092 38.125 48 35.8492 48 33.0417V27.9583C48 25.1509 46.2092 22.875 44 22.875H24C24 18.6638 21.3138 15.25 18 15.25H6C2.6863 15.25 -2.62268e-07 18.6638 0 22.875L5.24536e-07 38.125C6.69384e-07 42.3363 2.6863 45.75 6 45.75H18ZM20 38.125V33.0417H34V40.6667H38V33.0417H44V27.9583H20V22.875C20 21.4713 19.1046 20.3333 18 20.3333L6 20.3334C4.89544 20.3334 4 21.4713 4 22.875V38.125C4 39.5288 4.89544 40.6667 6 40.6667H18C19.1046 40.6667 20 39.5288 20 38.125Z" fill="#00D1FF"/>
</g>
</g>
<defs>
<clipPath id="clip0_2_12">
<rect width="48" height="61" fill="white"/>
</clipPath>
</defs>
</svg>
