<svg width="31" height="26" viewBox="0 0 31 26" fill="none" xmlns="http://www.w3.org/2000/svg">
<path fill-rule="evenodd" clip-rule="evenodd" d="M19.375 2.16663C20.8018 2.16663 21.9583 3.13668 21.9583 4.33329V17.3333C21.9583 18.5299 20.8018 19.5 19.375 19.5H6.45833C5.0316 19.5 3.875 18.5299 3.875 17.3333V4.33329C3.875 3.13668 5.0316 2.16663 6.45833 2.16663H19.375ZM6.45833 4.33329H19.375V17.3333H6.45833V4.33329Z" fill="#00D1FF"/>
<path d="M24.5416 19.5V7.58333C24.5416 6.98503 25.1199 6.5 25.8333 6.5C26.5467 6.5 27.125 6.98503 27.125 7.58333V19.5C27.125 21.8932 24.8117 23.8333 21.9583 23.8333H10.3333C9.61993 23.8333 9.04163 23.3483 9.04163 22.75C9.04163 22.1517 9.61993 21.6667 10.3333 21.6667H21.9583C23.3851 21.6667 24.5416 20.6966 24.5416 19.5Z" fill="#00D1FF"/>
</svg>
