<svg width="27" height="26" viewBox="0 0 27 26" fill="none" xmlns="http://www.w3.org/2000/svg">
<path fill-rule="evenodd" clip-rule="evenodd" d="M13.5 15.1667C15.9852 15.1667 18 13.2265 18 10.8333C18 8.4401 15.9852 6.5 13.5 6.5C11.0147 6.5 9 8.4401 9 10.8333C9 13.2265 11.0147 15.1667 13.5 15.1667ZM13.5 13C14.7427 13 15.75 12.03 15.75 10.8333C15.75 9.63672 14.7427 8.66667 13.5 8.66667C12.2573 8.66667 11.25 9.63672 11.25 10.8333C11.25 12.03 12.2573 13 13.5 13Z" fill="#00D1FF"/>
<path fill-rule="evenodd" clip-rule="evenodd" d="M23.625 10.8333C23.625 16.2099 17.6684 22.2614 14.8927 24.7894C14.1012 25.5102 12.8988 25.5102 12.1073 24.7894C9.33168 22.2614 3.375 16.2099 3.375 10.8333C3.375 5.44857 7.90812 1.08334 13.5 1.08334C19.0919 1.08334 23.625 5.44857 23.625 10.8333ZM21.375 10.8333C21.375 12.8305 20.2267 15.2259 18.4625 17.6289C16.8113 19.8779 14.8362 21.8463 13.5 23.0749C12.1638 21.8463 10.1887 19.8779 8.53752 17.6289C6.77334 15.2259 5.625 12.8305 5.625 10.8333C5.625 6.64519 9.15076 3.25001 13.5 3.25001C17.8492 3.25001 21.375 6.64519 21.375 10.8333Z" fill="#00D1FF"/>
</svg>
