<svg width="50" height="60" viewBox="0 0 50 60" fill="none" xmlns="http://www.w3.org/2000/svg">
<path d="M31.6991 14.9999L29.3631 17.8032C28.5495 18.7795 28.5495 20.3624 29.3631 21.3387C30.1766 22.315 31.4958 22.315 32.3093 21.3387L38.202 14.2676C38.5927 13.7988 38.8122 13.1629 38.8122 12.4999C38.8122 11.8368 38.5927 11.2009 38.202 10.7321L32.3093 3.661C32.2077 3.53898 32.0981 3.43218 31.9827 3.34065C31.1739 2.69995 30.075 2.80673 29.3631 3.661C28.5495 4.63733 28.5495 6.22023 29.3631 7.19655L31.6991 9.99985H20.8516C11.6469 9.99985 4.18494 18.9542 4.18494 29.9998C4.18494 33.4948 4.93192 36.78 6.24475 39.6388C6.86817 40.9963 8.38862 41.1165 9.30194 40.0205C10.0297 39.1473 10.1147 37.7838 9.65583 36.6783C8.82108 34.667 8.3516 32.3993 8.3516 29.9998C8.3516 21.7156 13.948 14.9999 20.8516 14.9999H31.6991Z" fill="#00D1FF"/>
<path d="M20.6734 52.8032L18.3373 49.9998H29.1849C38.3897 49.9998 45.8516 41.0455 45.8516 29.9997C45.8516 26.505 45.1045 23.2196 43.7918 20.3608C43.7139 20.1912 43.6218 20.0408 43.5189 19.9097C42.7977 18.9923 41.5337 19.0201 40.7345 19.9791C40.0068 20.8524 39.9218 22.2158 40.3808 23.3214C40.4849 23.5728 40.5837 23.8282 40.6764 24.0873C41.3256 25.9015 41.685 27.9002 41.685 29.9997C41.685 38.284 36.0885 44.9998 29.1849 44.9998H18.3373L20.6734 42.1965C21.487 41.2202 21.487 39.6372 20.6734 38.661C19.8598 37.6847 18.5407 37.6847 17.7271 38.661L11.8346 45.732C11.4439 46.201 11.2244 46.8368 11.2244 47.4998C11.2244 48.163 11.4439 48.7987 11.8346 49.2675L17.7271 56.3387C18.5407 57.315 19.8598 57.315 20.6734 56.3387C21.487 55.3622 21.487 53.7795 20.6734 52.8032Z" fill="#00D1FF"/>
</svg>
