<svg width="51" height="37" viewBox="0 0 51 37" fill="none" xmlns="http://www.w3.org/2000/svg">
<path fill-rule="evenodd" clip-rule="evenodd" d="M48.2328 20.3528L3.92395 36.7983C1.90587 37.5473 -0.309062 36.0821 0.462019 34.5085L7.9947 19.1335C8.19507 18.7245 8.19507 18.2762 7.9947 17.8673L0.461695 2.49165C-0.309336 0.917886 1.90535 -0.547216 3.9234 0.201618L48.7662 16.841C50.6056 17.5235 50.6059 19.4721 48.7664 20.1548L48.2393 20.3504V20.3528H48.2328ZM7.29333 5.59427L37.0826 16.6478H12.7085C12.7011 16.6323 12.6936 16.6167 12.686 16.6011L7.29333 5.59427ZM12.7085 20.3528C12.7011 20.3684 12.6936 20.3841 12.686 20.3997L7.29398 31.4052L37.0719 20.3528H12.7085Z" fill="black"/>
</svg>
